<?xml version="1.0"?>
<svg xmlns:rdf="http://www.w3.org/1999/02/22-rdf-syntax-ns#" xmlns="http://www.w3.org/2000/svg" xmlns:cc="http://web.resource.org/cc/" xmlns:xlink="http://www.w3.org/1999/xlink" xmlns:dc="http://purl.org/dc/elements/1.1/" xmlns:svg="http://www.w3.org/2000/svg" id="svg1" height="80pt" width="80pt">
  <defs id="defs3">
    <linearGradient id="linearGradient1555" x2=".48125" y1=".066667" x1="-.09375" y2=".57436">
      <stop id="stop1576" stop-color="#fff" stop-opacity=".5" offset="0"/>
      <stop id="stop1577" stop-color="#fff" stop-opacity="0" offset="1"/>
    </linearGradient>
  </defs>
  <g id="g1556" transform="translate(-296.25 7.5)">
    <g id="g1600" transform="translate(62.596 -152.93)">
      <path id="path1561" stroke-linejoin="round" d="m283.41 149.59c-10.95 18.62-53.38 52.01-27.88 62.13 15.48 4.66 22.85-4.88 25.97-11.19h0.62c-0.02 1.19-0.57 29.38-2.21 30.75-3.6 3.01-8.16 2.78-8.16 2.78l0.09 3.28 23.82-0.09 0.09-3.25s-4.53 0.2-8.13-2.81c-1.64-1.38-2.22-29.52-2.24-30.69h0.24c2.53 5.16 12.09 15.83 22.61 11.77 30.76-11.4-15.47-41.97-24.82-62.68z" fill-rule="evenodd" stroke="#000" stroke-width="1.25"/>
    </g>
    <path id="path1554" fill-rule="evenodd" fill="url(#linearGradient1555)" d="m345.98-3.1575c-10.95 18.62-53.38 52.008-27.88 62.126 15.48 4.657 22.85-4.877 25.97-11.188h0.63c-0.03 1.187-0.58 29.376-2.22 30.75-3.6 3.014-8.16 2.781-8.16 2.781l0.1 3.282 23.81-0.094 0.09-3.25s-4.53 0.201-8.12-2.813c-1.64-1.374-2.23-29.516-2.25-30.687h0.25c2.52 5.157 12.08 15.833 22.6 11.767 30.76-11.397-15.47-41.965-24.82-62.674z"/>
  </g>
  <metadata>
    <rdf:RDF>
      <cc:Work>
        <dc:format>image/svg+xml</dc:format>
        <dc:type rdf:resource="http://purl.org/dc/dcmitype/StillImage"/>
        <cc:license rdf:resource="http://creativecommons.org/licenses/publicdomain/"/>
        <dc:publisher>
          <cc:Agent rdf:about="http://openclipart.org/">
            <dc:title>Openclipart</dc:title>
          </cc:Agent>
        </dc:publisher>
        <dc:title>Card symbols: Spade</dc:title>
        <dc:date>2009-03-10T13:21:00</dc:date>
        <dc:description>Spade symbol for playing cards</dc:description>
        <dc:source>http://openclipart.org/detail/22075/card-symbols:-spade-by-nicubunu</dc:source>
        <dc:creator>
          <cc:Agent>
            <dc:title>nicubunu</dc:title>
          </cc:Agent>
        </dc:creator>
        <dc:subject>
          <rdf:Bag>
            <rdf:li>cards</rdf:li>
            <rdf:li>clip art</rdf:li>
            <rdf:li>clipart</rdf:li>
            <rdf:li>gambling</rdf:li>
            <rdf:li>game</rdf:li>
            <rdf:li>image</rdf:li>
            <rdf:li>media</rdf:li>
            <rdf:li>play</rdf:li>
            <rdf:li>playing cards</rdf:li>
            <rdf:li>png</rdf:li>
            <rdf:li>public domain</rdf:li>
            <rdf:li>svg</rdf:li>
            <rdf:li>symbol</rdf:li>
          </rdf:Bag>
        </dc:subject>
      </cc:Work>
      <cc:License rdf:about="http://creativecommons.org/licenses/publicdomain/">
        <cc:permits rdf:resource="http://creativecommons.org/ns#Reproduction"/>
        <cc:permits rdf:resource="http://creativecommons.org/ns#Distribution"/>
        <cc:permits rdf:resource="http://creativecommons.org/ns#DerivativeWorks"/>
      </cc:License>
    </rdf:RDF>
  </metadata>
</svg>
